<?xml version="1.0" encoding="utf-8"?>
<!-- Generator: Adobe Illustrator 25.3.1, SVG Export Plug-In . SVG Version: 6.00 Build 0)  -->
<svg version="1.1"
	 id="Layer_1" inkscape:version="0.91 r13725" xmlns:cc="http://creativecommons.org/ns#" xmlns:dc="http://purl.org/dc/elements/1.1/" xmlns:inkscape="http://www.inkscape.org/namespaces/inkscape" xmlns:rdf="http://www.w3.org/1999/02/22-rdf-syntax-ns#" xmlns:sodipodi="http://sodipodi.sourceforge.net/DTD/sodipodi-0.dtd" xmlns:svg="http://www.w3.org/2000/svg"
	 xmlns="http://www.w3.org/2000/svg" xmlns:xlink="http://www.w3.org/1999/xlink" x="0px" y="0px" viewBox="0 0 278.7 36.3"
	 style="enable-background:new 0 0 278.7 36.3;" xml:space="preserve">
<style type="text/css">
	.st0{fill:#888888;}
</style>
<sodipodi:namedview  bordercolor="#666666" borderlayer="false" borderopacity="1" fit-margin-bottom="0" fit-margin-left="0" fit-margin-right="0" fit-margin-top="0" gridtolerance="10" guidetolerance="10" id="namedview39" inkscape:current-layer="Layer_1" inkscape:cx="-15.338928" inkscape:cy="215.21533" inkscape:pageopacity="0" inkscape:pageshadow="2" inkscape:showpageshadow="false" inkscape:window-height="980" inkscape:window-maximized="1" inkscape:window-width="1920" inkscape:window-x="0" inkscape:window-y="34" inkscape:zoom="1.0423407" objecttolerance="10" pagecolor="#ffffff" showgrid="false">
	</sodipodi:namedview>
<g id="TESLA" transform="translate(-28.524,-64.797)">
	<g id="g8">
		<polyline id="polyline10" class="st0" points="266.6,79.2 266.6,101.1 273.6,101.1 273.6,86.5 299.2,86.5 299.2,101.1 
			306.2,101.1 306.2,79.2 266.6,79.2 		"/>
		<path id="path12" inkscape:connector-curvature="0" class="st0" d="M272.8,72.1h27c3.8-0.7,6.5-4.1,7.3-7.3h-41.7
			C266.3,68,269.1,71.3,272.8,72.1"/>
	</g>
	<g id="g14">
		<path id="path16" inkscape:connector-curvature="0" class="st0" d="M245.3,101.1c3.5-1.5,5.4-4.1,6.2-7.1H220l0-29.1l-7.1,0v36.2
			L245.3,101.1"/>
	</g>
	<g id="g18">
		<path id="path20" inkscape:connector-curvature="0" class="st0" d="M160.4,72h25c3.8-1.1,6.9-4,7.7-7.1h-39.6v21.4h32.4v7.5
			l-25.4,0c-4,1.1-7.4,3.8-9.1,7.3l2.1,0h39.4V79.2h-32.4L160.4,72"/>
	</g>
	<g id="g22">
		<path id="path24" inkscape:connector-curvature="0" class="st0" d="M98.8,72.1h27c3.8-0.7,6.6-4.1,7.3-7.3H91.5
			C92.2,68,95.1,71.3,98.8,72.1"/>
		<path id="path26" inkscape:connector-curvature="0" class="st0" d="M98.8,86.4h27c3.8-0.7,6.6-4.1,7.3-7.3H91.5
			C92.2,82.3,95.1,85.6,98.8,86.4"/>
		<path id="path28" inkscape:connector-curvature="0" class="st0" d="M98.8,101.1h27c3.8-0.7,6.6-4.1,7.3-7.3H91.5
			C92.2,97,95.1,100.4,98.8,101.1"/>
	</g>
	<g id="g30">
		<path id="path32" inkscape:connector-curvature="0" class="st0" d="M28.5,64.9c0.8,3.2,3.6,6.4,7.3,7.2h11.4l0.6,0.2V101h7.1V72.3
			l0.6-0.2h11.4c3.8-1,6.5-4,7.3-7.2v-0.1L28.5,64.9L28.5,64.9"/>
	</g>
</g>
</svg>
