<svg width="20" height="20" viewBox="0 0 20 20" fill="none" xmlns="http://www.w3.org/2000/svg">
<path d="M17.0736 2.93537C16.1476 2.00326 15.0457 1.26388 13.8316 0.760017C12.6175 0.256158 11.3153 -0.00216284 10.0006 1.36397e-05C8.68552 -0.0020411 7.38313 0.256327 6.16871 0.760172C4.9543 1.26402 3.85198 2.00334 2.92551 2.93537C-0.975171 6.82986 -0.975171 13.1691 2.92551 17.0646C3.852 17.9969 4.95446 18.7364 6.16908 19.2402C7.3837 19.7441 8.68633 20.0023 10.0016 20C11.3163 20.0023 12.6183 19.7441 13.8324 19.2404C15.0465 18.7368 16.1485 17.9976 17.0746 17.0656C20.9753 13.1711 20.9753 6.83185 17.0736 2.93537ZM10.1806 2.0072H9.82148C9.88251 2.00621 9.94054 1.99821 10.0016 1.99821C10.0626 1.99821 10.1196 2.00621 10.1806 2.0072ZM16.2453 14.9955H14.0013L12.7427 17.5092C11.8648 17.8332 10.9365 17.9999 10.0006 18.0018C9.06288 18.0001 8.13287 17.833 7.25338 17.5082L5.99784 15.0055H3.76187C2.93695 13.9813 2.37909 12.7689 2.13817 11.4767L3.99697 9.0009L2.78045 6.57009C3.16862 5.74542 3.69624 4.99375 4.34012 4.34809C5.2413 3.44497 6.34588 2.77043 7.56151 2.38087L9.99956 4.0054L12.4386 2.38187C13.6539 2.7717 14.7583 3.44582 15.66 4.34809C16.3032 4.99298 16.8304 5.7436 17.2187 6.56709L16.0021 9.0009L17.861 11.4767C17.6211 12.7647 17.0661 13.9735 16.2453 14.9955Z" fill="white"/>
<path d="M6.5 9L8 13H12L13.5 9L10 6.5L6.5 9Z" fill="white"/>
</svg>
