<svg width="19" height="19" viewBox="0 0 19 19" fill="none" xmlns="http://www.w3.org/2000/svg">
<path fill-rule="evenodd" clip-rule="evenodd" d="M19 1.01786H17.9821V0C18.5443 0 19 0.455709 19 1.01786ZM14.9284 11.1762C15.6858 10.5116 16.3527 9.7834 16.8192 9.00581C17.9241 7.16443 18.4634 5.16572 18.73 3.65456C18.8643 2.89395 18.9316 2.24415 18.9655 1.78131C18.9824 1.5496 18.9911 1.36393 18.9954 1.23372C18.9976 1.16859 18.9988 1.11726 18.9994 1.08091L18.9999 1.03774L19 1.02483L19 1.0206L19 1.01786C19 1.01786 19 1.01786 17.9821 1.01786C17.9821 0 17.9821 0 17.9821 0L17.9794 2.91211e-06L17.9752 1.5693e-05L17.9623 9.432e-05L17.9191 0.000630795C17.8827 0.00122025 17.8314 0.0023584 17.7663 0.00455373C17.6361 0.00894292 17.4504 0.0175675 17.2187 0.0345219C16.7558 0.0683886 16.1061 0.135726 15.3454 0.269952C13.8343 0.536627 11.8356 1.07593 9.99419 2.18076C9.2166 2.64732 8.4884 3.31421 7.82375 4.07162C7.81704 4.07149 7.81032 4.07142 7.80359 4.07142V4.09465C7.80352 4.0711 7.80359 4.07142 7.80359 4.07142L7.80101 4.07142L7.79668 4.07144L7.78292 4.07151L7.73561 4.07202C7.69555 4.07259 7.63873 4.0737 7.56733 4.07587C7.42469 4.08019 7.22302 4.08874 6.97996 4.1057C6.49677 4.13941 5.83607 4.20727 5.14415 4.34565C4.46126 4.48223 3.69663 4.69733 3.03327 5.04853C2.37875 5.39503 1.69602 5.94326 1.4094 6.80312C1.04005 7.91117 0.859297 9.00482 0.769645 9.81169C0.724532 10.2177 0.701817 10.5574 0.690353 10.7981C0.684615 10.9186 0.681678 11.0147 0.680175 11.0824C0.679423 11.1162 0.679029 11.1429 0.678823 11.1621L0.678633 11.1851L0.678605 11.1923L0.6786 11.1947C0.6786 11.1947 0.678598 11.1964 1.69645 11.1964H0.678598C0.678598 11.6635 0.996472 12.0706 1.44959 12.1839L3.89036 12.7941L6.20593 15.1096L6.81612 17.5504C6.9294 18.0035 7.33653 18.3214 7.80359 18.3214V17.3035C7.80359 18.3214 7.80359 18.3214 7.80359 18.3214L7.80774 18.3214L7.81487 18.3214L7.83789 18.3212C7.85706 18.321 7.88381 18.3206 7.91765 18.3198C7.9853 18.3183 8.08139 18.3154 8.20189 18.3096C8.44262 18.2982 8.78229 18.2755 9.18831 18.2304C9.99518 18.1407 11.0888 17.9599 12.1969 17.5906C13.0567 17.304 13.605 16.6212 13.9515 15.9667C14.3027 15.3034 14.5178 14.5387 14.6543 13.8558C14.7927 13.1639 14.8606 12.5032 14.8943 12.02C14.9113 11.777 14.9198 11.5753 14.9241 11.4327C14.9263 11.3613 14.9274 11.3045 14.928 11.2644L14.9285 11.2171L14.9286 11.2033L14.9286 11.1975C14.9286 11.1975 14.9286 11.1968 14.905 11.1967L14.9286 11.1975C14.9286 11.1908 14.9285 11.183 14.9284 11.1762ZM10.8204 11.6036C12.5813 10.5554 14.2872 9.26917 15.0736 7.95845C16.0045 6.40698 16.4831 4.67355 16.7253 3.30079C16.8045 2.85207 16.8575 2.44727 16.893 2.10702C16.5527 2.14249 16.1479 2.1955 15.6992 2.27469C14.3265 2.51694 12.593 2.99549 11.0416 3.92637C9.73083 4.71281 8.44463 6.41866 7.39644 8.17956L5.64922 11.674L7.326 13.3508L10.8204 11.6036ZM8.32244 15.1822L8.58786 16.2439C8.70337 16.2341 8.82913 16.222 8.9635 16.2071C9.68342 16.1271 10.6255 15.9686 11.5531 15.6594C11.7111 15.6067 11.9263 15.4412 12.1523 15.0142C12.3737 14.5961 12.5403 14.046 12.6582 13.4566C12.6949 13.2732 12.7259 13.0908 12.7521 12.9137L11.7982 13.3907C11.6204 13.4958 11.445 13.597 11.2732 13.6941C10.267 14.2628 9.32887 14.7209 8.6427 15.0367C8.52889 15.0891 8.42187 15.1377 8.32244 15.1822ZM3.81776 10.6776L2.75607 10.4121C2.76587 10.2966 2.77798 10.1709 2.79291 10.0365C2.8729 9.31658 3.03143 8.37452 3.34065 7.44686C3.39331 7.28887 3.55879 7.0737 3.98575 6.84766C4.40386 6.62631 4.95396 6.45972 5.54339 6.34183C5.72683 6.30514 5.90916 6.27412 6.08628 6.2479L5.60934 7.20178C5.50419 7.37962 5.40298 7.55502 5.30588 7.72682C4.73717 8.73299 4.27911 9.67113 3.96325 10.3573C3.91087 10.4711 3.86232 10.5781 3.81776 10.6776Z" fill="white"/>
<path d="M1.01788 17.9821L3.73217 16.625L2.37502 15.2678L1.01788 17.9821Z" fill="white"/>
<path fill-rule="evenodd" clip-rule="evenodd" d="M2.21198 14.2631C2.53494 14.2107 2.8634 14.3167 3.09476 14.5481L4.4519 15.9052C4.68325 16.1366 4.78929 16.4651 4.73688 16.788C4.68447 17.111 4.48001 17.3891 4.18736 17.5354L1.47308 18.8925C1.08122 19.0884 0.607946 19.0116 0.298151 18.7018C-0.0116438 18.3921 -0.0884455 17.9188 0.107486 17.5269L1.46463 14.8126C1.61095 14.52 1.88902 14.3155 2.21198 14.2631Z" fill="white"/>
<path d="M12.5536 7.12499C12.9283 7.12499 13.2322 6.82118 13.2322 6.44642C13.2322 6.07166 12.9283 5.76785 12.5536 5.76785C12.1788 5.76785 11.875 6.07166 11.875 6.44642C11.875 6.82118 12.1788 7.12499 12.5536 7.12499Z" fill="white"/>
<path fill-rule="evenodd" clip-rule="evenodd" d="M12.5536 6.7857C12.741 6.7857 12.8929 6.6338 12.8929 6.44642C12.8929 6.25904 12.741 6.10713 12.5536 6.10713C12.3662 6.10713 12.2143 6.25904 12.2143 6.44642C12.2143 6.6338 12.3662 6.7857 12.5536 6.7857ZM10.8572 6.44642C10.8572 5.50951 11.6167 4.74999 12.5536 4.74999C13.4905 4.74999 14.25 5.50951 14.25 6.44642C14.25 7.38333 13.4905 8.14285 12.5536 8.14285C11.6167 8.14285 10.8572 7.38333 10.8572 6.44642Z" fill="white"/>
</svg>
