<?xml version="1.0" encoding="utf-8"?>
<!-- Generator: Adobe Illustrator 24.1.3, SVG Export Plug-In . SVG Version: 6.00 Build 0)  -->
<svg version="1.1" id="Calque_1" xmlns="http://www.w3.org/2000/svg" xmlns:xlink="http://www.w3.org/1999/xlink" x="0px" y="0px"
	 viewBox="0 0 250 250" style="enable-background:new 0 0 250 250;" xml:space="preserve">
<style type="text/css">
	.st0{fill:#FFFFFF;}
</style>
<g>
	<path class="st0" d="M120.67,131.31c-1.08-10.2,5.08-16.28,13.1-19.87c10.06-4.51,20.89-7.29,31.21-11.26
		c7.11-2.74,13.93-6.23,20.43-10.55c-21.84-3.86-44.72,11.24-67.06-6.34c11.76-4.62,21.38-8.56,31.11-12.2
		c26.08-9.75,43.06-26.97,46.51-55.6c0.3-2.45,1.45-4.8,2.3-7.48c3.11,1.01,5.8,1.91,8.49,2.75c7.49,2.36,13.44,6.25,14.81,14.73
		c1.44,8.9-2.24,15.81-9.34,20.53c-9.46,6.28-19.58,11.57-29.07,17.81c-7.63,5.02-14.74,10.82-22.08,16.27
		c0.69,1.24,1.38,2.47,2.07,3.71c9.39-3.3,18.69-6.87,28.19-9.84c9.34-2.92,18.87-5.25,28.21-7.81
		c4.65,14.09,1.18,26.25-11.31,32.09c-14.51,6.78-30.26,11.05-45.7,15.67c-13.28,3.98-27.06,6.47-39.08,16.44
		c3.25,0.77,5.48,1.3,7.71,1.83C127.67,131.89,124.17,131.6,120.67,131.31z"/>
	<path class="st0" d="M120.67,131.31c3.5,0.29,7,0.58,10.5,0.87c24.42,1.32,48.85,2.61,73.27,3.97c8.99,0.5,11.22,5.64,11.32,14.16
		c0.63,57.1-59.66,86.97-100.38,75.84c-20.17-5.52-33.08-20.53-45.47-35.92c-6.23-7.74-11.78-16.04-16.63-25.41
		c2.01,1.67,4.27,3.12,5.98,5.06c9.22,10.47,17.74,21.63,27.55,31.51c29.8,30.01,64.15,29.64,93.57-0.88
		c12.48-12.94,24.19-26.63,28.13-45.01c0.48-2.22,0.86-4.47,1.09-6.73c0.14-1.33-0.11-2.69-0.2-4.28
		c-51,9.21-101.72,10.41-152.61,3.81c-2.62-0.34-5.04-2.28-7.55-3.48c-0.13-0.84-0.25-1.67-0.38-2.51
		c6.74-2.01,13.37-4.97,20.25-5.84c14.68-1.86,29.49-2.61,44.24-3.9C115.81,132.36,118.23,131.74,120.67,131.31z M66.67,142.39
		c46.61,0,93.22,0,139.83,0c-0.03-1.1-0.05-2.2-0.08-3.31C159.7,135,113.06,134.58,66.67,142.39z"/>
	<path class="st0" d="M50.62,220.5c42.92,13.89,86.66,14.63,130.8,8.09c5.28-0.78,10.54-2.36,15.5-4.34
		c2.19-0.87,3.61-3.66,4.07-6.78c0.51-0.24,1.08-0.76,1.51-0.66c3.53,0.81,7.02,1.74,10.53,2.64c-2.69,3.21-4.74,7.87-8.19,9.41
		c-27.18,12.16-56.11,14.81-85.27,12.25c-18.89-1.66-37.61-5.78-56.22-9.68c-5.17-1.08-9.68-5.3-14.49-8.08
		C49.45,222.4,50.03,221.45,50.62,220.5z"/>
	<path class="st0" d="M44.84,156.1c-9.1-2.35-8.32,5.34-9.21,9.95c-3.09,16.04,4.81,30.24,18.29,32.66
		c-8.31,3.76-14.04,1.01-18.03-5.34c-6.75-10.72-8.81-22.77-7.29-35.16c0.37-2.99,3.52-7.47,6-7.92c3.53-0.64,7.63,1.81,11.48,2.94
		C45.67,154.19,45.25,155.15,44.84,156.1z"/>
</g>
</svg>
